#!OML:ASF E:\emotionWalksFemale\Project 1\Capture day 1\Session 1\Female1.ASF
:FULLY-SPECIFIED
:DEGREES
764
root 9.27376 15.2826 0.943058 168.524 23.6696 174.033
lowerback 1.49335 -3.42825 3.01219
upperback -5.69704 -3.88307 3.82273
thorax -6.71813 -1.82166 2.57979
lowerneck -3.04947 11.3011 6.70558
upperneck 16.5732 16.9184 -7.11592
head 6.73213 8.47715 -2.01157
rclavicle 5.08889e-014 -1.27222e-013
rhumerus -72.5112 33.9458 -81.7071
rradius 28.9636
rwrist 2.27613
rhand 148.504 -65.8893
rfingers 7.12502
rthumb -184.762 -35.9628
lclavicle 5.08889e-014 -1.27222e-013
lhumerus -44.9034 -11.6865 64.5477
lradius 25.8118
lwrist -29.4579
lhand 62.8324 -24.3963
lfingers 7.12502
lthumb 74.9679 -67.152
rfemur 7.94906 9.54096 14.1464
rtibia 57.6318
rfoot 9.33389 -2.61264
rtoes -0.0744
lfemur -10.2733 1.77582 -30.9179
ltibia 22.5429
lfoot -15.1059 27.095
ltoes 31.2879
765
root 9.26053 15.2927 0.790062 167.976 23.6252 173.169
lowerback 1.36809 -2.8224 2.40714
upperback -5.55824 -3.17413 3.40107
thorax -6.49327 -1.46834 2.40932
lowerneck -3.42614 10.6234 6.17465
upperneck 16.2458 15.8124 -6.57419
head 6.52081 7.92187 -1.86895
rclavicle 3.18055e-014 -3.65764e-014
rhumerus -75.5095 34.8017 -85.6337
rradius 28.5915
rwrist 2.73093
rhand 148.615 -65.8602
rfingers 7.12502
rthumb -184.655 -35.9314
lclavicle 3.18055e-014 -3.65764e-014
lhumerus -43.9967 -13.3581 63.9831
lradius 25.6861
lwrist -30.7015
lhand 62.6708 -23.9383
lfingers 7.12502
lthumb 74.9608 -66.0928
rfemur 5.7474 9.97682 13.1132
rtibia 61.2442
rfoot 10.9535 -1.85891
rtoes 0.945814
lfemur -8.86832 1.19189 -32.0988
ltibia 21.3343
lfoot -15.292 27.7367
ltoes 31.616
766
root 9.24742 15.3006 0.64081 167.696 23.3289 172.527
lowerback 1.03682 -2.26897 1.97245
upperback -5.47994 -2.51354 2.99836
thorax -6.22654 -1.14131 2.16707
lowerneck -3.6931 9.89229 5.63142
upperneck 15.9033 14.6747 -6.099
head 6.30154 7.35313 -1.74775
rclavicle -2.62396e-014 -3.18055e-014
rhumerus -78.8591 35.3579 -90.072
rradius 28.2145
rwrist 2.73408
rhand 148.302 -65.7619
rfingers 7.12502
rthumb -184.957 -35.8399
lclavicle -2.62396e-014 -3.18055e-014
lhumerus -42.9134 -14.8547 63.3047
lradius 25.5105
lwrist -32.7997
lhand 61.3025 -23.5178
lfingers 7.12502
lthumb 74.8326 -60.6227
rfemur 3.53145 10.1944 12.3489
rtibia 64.4941
rfoot 11.5756 -1.1865
rtoes -0.0588635
lfemur -7.82112 0.619846 -33.1244
ltibia 20.388
lfoot -15.1949 28.2141
ltoes 31.4417
767
root 9.23535 15.3073 0.498105 167.553 22.9517 172.283
lowerback 0.933305 -1.75818 1.74134
upperback -5.49796 -1.85995 2.7629
thorax -6.19754 -0.814919 2.00562
lowerneck -3.76406 9.13422 4.82941
upperneck 15.6756 13.5141 -5.31844
head 6.05811 6.78777 -1.49761
rclavicle -6.2816e-014 -7.95139e-014
rhumerus -82.516 35.6805 -94.865
rradius 27.5521
rwrist 2.78478
rhand 147.855 -65.7816
rfingers 7.12502
rthumb -185.389 -35.8701
lclavicle -6.2816e-014 -7.95139e-014
lhumerus -41.8499 -15.6462 62.4499
lradius 25.2618
lwrist -36.0953
lhand 58.3462 -22.2107
lfingers 7.12502
lthumb 74.16 -48.919
rfemur 1.55635 10.37 12.1352
rtibia 67.3258
rfoot 11.3695 -0.982496
rtoes 0.285774
lfemur -6.91898 0.0758761 -33.7712
ltibia 19.757
lfoot -15.1352 28.5672
ltoes 30.7991
768
root 9.2242 15.3087 0.354671 167.234 22.8217 172.053
lowerback 1.13477 -1.12936 1.55228
upperback -5.46165 -1.04083 2.56683
thorax -6.29015 -0.409386 1.85942
lowerneck -3.93328 8.38104 3.79586
upperneck 15.4794 12.3378 -4.24967
head 5.82803 6.21465 -1.11099
rclavicle 1.51076e-014 4.77083e-014
rhumerus -86.0036 35.5573 -99.5619
rradius 26.7583
rwrist 3.1882
rhand 147.586 -65.976
rfingers 7.12502
rthumb -185.649 -36.0713
lclavicle 1.51076e-014 4.77083e-014
lhumerus -40.6634 -15.9574 61.4282
lradius 25.1218
lwrist -40.116
lhand 58.5625 -23.1036
lfingers 7.12502
lthumb 74.2265 -50.5387
rfemur -0.175801 10.7832 12.0468
rtibia 69.8226
rfoot 10.8529 -0.862076
rtoes -0.511014
lfemur -6.01985 -0.177777 -34.358
ltibia 19.4931
lfoot -15.5376 28.8321
ltoes 30.154
769
root 9.21277 15.3044 0.213689 166.97 22.0231 171.955
lowerback 1.32969 -0.690572 1.42462
upperback -5.47058 -0.472528 2.33064
thorax -6.42295 -0.13137 1.65011
lowerneck -4.12029 7.52237 2.78925
upperneck 15.2582 11.0688 -3.39433
head 5.62979 5.58571 -0.789871
rclavicle -3.02153e-014 4.77083e-015
rhumerus -89.3747 34.9939 -104.184
rradius 26.228
rwrist 3.31704
rhand 147.451 -66.2143
rfingers 7.12502
rthumb -185.779 -36.3131
lclavicle -3.02153e-014 4.77083e-015
lhumerus -39.2326 -16.1342 60.4008
lradius 25.035
lwrist -44.2681
lhand 57.503 -23.5444
lfingers 7.12502
lthumb 73.8759 -47.48
rfemur -1.57771 10.5643 12.001
rtibia 71.9431
rfoot 10.0652 -1.13572
rtoes -0.638389
lfemur -5.25849 -0.503452 -34.9522
ltibia 19.6016
lfoot -15.7683 28.6301
ltoes 29.09
770
root 9.20788 15.2996 0.085618 166.948 21.3961 171.869
lowerback 1.29417 -0.119103 1.2239
upperback -5.50472 0.270429 2.09495
thorax -6.45035 0.239406 1.46564
lowerneck -4.2657 6.4896 1.90939
upperneck 14.9352 9.596 -2.78112
head 5.4308 4.84897 -0.570365
rclavicle -7.95139e-014 -7.95139e-015
rhumerus -92.5005 34.0091 -108.669
rradius 26.0618
rwrist 2.93771
rhand 147.307 -66.088
rfingers 7.12502
rthumb -185.918 -36.1906
lclavicle -7.95139e-014 -7.95139e-015
lhumerus -37.5363 -16.8042 59.6499
lradius 24.9782
lwrist -47.7719
lhand 55.1965 -23.7009
lfingers 7.12502
lthumb 72.9144 -40.5976
rfemur -3.30474 10.5019 12.0337
rtibia 73.7639
rfoot 8.25773 -1.45472
rtoes -3.13062
lfemur -4.96717 -0.39698 -35.4171
ltibia 20.05
lfoot -15.9832 28.1658
ltoes 27.5318
771
root 9.20382 15.2935 -0.035114 166.991 20.5226 172.089
lowerback 1.44129 0.431498 1.22595
upperback -5.52074 1.00011 1.88449
thorax -6.56051 0.593137 1.19333
lowerneck -4.53259 5.45302 0.97584
upperneck 14.6703 8.09967 -1.95798
head 5.28265 4.1059 -0.265224
rclavicle 3.33958e-014 6.20208e-014
rhumerus -94.8947 32.6504 -112.331
rradius 25.8989
rwrist 2.56112
rhand 146.935 -65.5817
rfingers 7.12502
rthumb -186.277 -35.6947
lclavicle 3.33958e-014 6.20208e-014
lhumerus -35.8971 -17.3204 58.9295
lradius 25.1714
lwrist -51.2405
lhand 51.3695 -23.7304
lfingers 7.12502
lthumb 70.8213 -30.8116
rfemur -4.85491 10.1406 12.3885
rtibia 75.2017
rfoot 6.76596 -1.88103
rtoes -5.49095
lfemur -4.71903 -0.301172 -35.5961
ltibia 20.7186
lfoot -16.1294 27.4504
ltoes 25.6175
772
root 9.2002 15.2886 -0.154392 167.113 19.2792 172.76
lowerback 1.71009 0.844192 1.60158
upperback -5.53793 1.5741 1.74332
thorax -6.72894 0.85236 0.789985
lowerneck -4.70297 4.44295 -0.0339341
upperneck 14.4764 6.67742 -1.14484
head 5.16615 3.40045 0.0592599
rclavicle -4.69132e-014 2.54444e-014
rhumerus -96.4972 31.133 -115.231
rradius 25.5267
rwrist 1.96867
rhand 146.507 -65.0867
rfingers 7.12502
rthumb -186.69 -35.2124
lclavicle -4.69132e-014 2.54444e-014
lhumerus -34.3862 -16.8974 58.0616
lradius 25.7022
lwrist -54.7602
lhand 47.0458 -23.5453
lfingers 7.12502
lthumb 67.9093 -22.1059
rfemur -6.07071 9.36123 13.202
rtibia 76.2165
rfoot 5.43262 -2.69992
rtoes -7.86083
lfemur -4.39748 -0.389454 -35.3756
ltibia 21.4533
lfoot -16.0897 26.546
ltoes 22.9969
773
root 9.20274 15.2892 -0.275141 167.218 17.9563 173.462
lowerback 1.84977 1.21462 1.91277
upperback -5.53595 2.08812 1.63755
thorax -6.79597 1.08663 0.4637
lowerneck -4.52497 3.41992 -0.813847
upperneck 14.0128 5.24945 -0.596019
head 4.9477 2.69101 0.25871
rclavicle -3.89618e-014 -4.77083e-015
rhumerus -97.3862 29.6399 -117.396
rradius 25.0735
rwrist 1.13126
rhand 145.761 -65.0612
rfingers 7.12502
rthumb -187.41 -35.211
lclavicle -3.89618e-014 -4.77083e-015
lhumerus -32.8412 -16.3607 57.4352
lradius 26.2221
lwrist -56.9501
lhand 43.264 -22.8285
lfingers 7.12502
lthumb 65.0393 -15.7173
rfemur -7.06889 8.61483 14.0583
rtibia 76.8064
rfoot 3.83669 -4.10989
rtoes -7.57423
lfemur -4.07321 -0.547948 -35.0845
ltibia 22.2245
lfoot -16.1441 25.7356
ltoes 19.6706
774
root 9.20995 15.289 -0.396676 167.17 16.5923 173.94
lowerback 2.02733 1.56098 1.94618
upperback -5.55725 2.55211 1.48343
thorax -6.91141 1.30772 0.242823
lowerneck -4.17292 2.493 -1.43963
upperneck 13.5037 3.95187 -0.112854
head 4.70975 2.05043 0.424588
rclavicle -4.57205e-014 2.70347e-014
rhumerus -97.8404 28.25 -118.943
rradius 24.7208
rwrist 0.539902
rhand 144.571 -65.172
rfingers 7.12502
rthumb -188.559 -35.3655
lclavicle -4.57205e-014 2.70347e-014
lhumerus -31.1847 -16.2133 57.104
lradius 26.307
lwrist -57.5781
lhand 38.8561 -21.8027
lfingers 7.12502
lthumb 61.4403 -9.62894
rfemur -7.88973 7.87544 14.6582
rtibia 77.0234
rfoot 2.03366 -5.53545
rtoes -5.51395
lfemur -3.62975 -0.731401 -34.9808
ltibia 22.9695
lfoot -16.5955 24.9755
ltoes 16.9954
